<mxfile host="Electron" agent="Mozilla/5.0 (X11; Linux x86_64) AppleWebKit/537.36 (KHTML, like Gecko) draw.io/26.2.15 Chrome/134.0.6998.205 Electron/35.2.1 Safari/537.36" version="26.2.15">
  <diagram name="Страница — 1" id="x9U70hYu5tNN51U9HGru">
    <mxGraphModel dx="2066" dy="1195" grid="1" gridSize="10" guides="1" tooltips="1" connect="1" arrows="1" fold="1" page="1" pageScale="1" pageWidth="827" pageHeight="1169" math="0" shadow="0">
      <root>
        <mxCell id="0" />
        <mxCell id="1" parent="0" />
        <mxCell id="XIXhQvEFovdF97oVQOTi-38" value="" style="rounded=0;whiteSpace=wrap;html=1;dashed=1;dashPattern=8 8;" vertex="1" parent="1">
          <mxGeometry x="80" y="410" width="190" height="275" as="geometry" />
        </mxCell>
        <mxCell id="XIXhQvEFovdF97oVQOTi-29" value="" style="rounded=0;whiteSpace=wrap;html=1;dashed=1;dashPattern=8 8;" vertex="1" parent="1">
          <mxGeometry x="80" y="140" width="600" height="200" as="geometry" />
        </mxCell>
        <mxCell id="XIXhQvEFovdF97oVQOTi-27" value="" style="rounded=0;whiteSpace=wrap;html=1;dashed=1;dashPattern=8 8;" vertex="1" parent="1">
          <mxGeometry x="474" y="410" width="206" height="280" as="geometry" />
        </mxCell>
        <mxCell id="XIXhQvEFovdF97oVQOTi-22" style="edgeStyle=orthogonalEdgeStyle;rounded=0;orthogonalLoop=1;jettySize=auto;html=1;" edge="1" parent="1" source="XIXhQvEFovdF97oVQOTi-1" target="XIXhQvEFovdF97oVQOTi-12">
          <mxGeometry relative="1" as="geometry" />
        </mxCell>
        <mxCell id="XIXhQvEFovdF97oVQOTi-1" value="S3 minio&lt;div&gt;parquet&lt;/div&gt;" style="shape=cylinder3;whiteSpace=wrap;html=1;boundedLbl=1;backgroundOutline=1;size=15;" vertex="1" parent="1">
          <mxGeometry x="497.5" y="470" width="125" height="170" as="geometry" />
        </mxCell>
        <mxCell id="XIXhQvEFovdF97oVQOTi-46" style="edgeStyle=orthogonalEdgeStyle;rounded=0;orthogonalLoop=1;jettySize=auto;html=1;entryX=0;entryY=0.5;entryDx=0;entryDy=0;" edge="1" parent="1" source="XIXhQvEFovdF97oVQOTi-2" target="XIXhQvEFovdF97oVQOTi-31">
          <mxGeometry relative="1" as="geometry" />
        </mxCell>
        <UserObject label="Producer&lt;div&gt;websocket&lt;/div&gt;" id="XIXhQvEFovdF97oVQOTi-2">
          <mxCell style="rounded=1;whiteSpace=wrap;html=1;" vertex="1" parent="1">
            <mxGeometry x="125" y="210" width="100" height="60" as="geometry" />
          </mxCell>
        </UserObject>
        <mxCell id="XIXhQvEFovdF97oVQOTi-12" value="ELT&lt;div&gt;Airflow&lt;/div&gt;" style="whiteSpace=wrap;html=1;aspect=fixed;" vertex="1" parent="1">
          <mxGeometry x="310" y="505" width="100" height="100" as="geometry" />
        </mxCell>
        <mxCell id="XIXhQvEFovdF97oVQOTi-53" style="edgeStyle=orthogonalEdgeStyle;rounded=0;orthogonalLoop=1;jettySize=auto;html=1;entryX=0;entryY=0.5;entryDx=0;entryDy=0;" edge="1" parent="1" source="XIXhQvEFovdF97oVQOTi-13" target="XIXhQvEFovdF97oVQOTi-52">
          <mxGeometry relative="1" as="geometry" />
        </mxCell>
        <mxCell id="XIXhQvEFovdF97oVQOTi-13" value="Clickhouse" style="shape=cylinder3;whiteSpace=wrap;html=1;boundedLbl=1;backgroundOutline=1;size=15;" vertex="1" parent="1">
          <mxGeometry x="100" y="482.5" width="130" height="172.5" as="geometry" />
        </mxCell>
        <mxCell id="XIXhQvEFovdF97oVQOTi-24" value="&lt;span style=&quot;color: rgb(5, 5, 5); font-family: Roboto, sans-serif; font-size: 18px; text-align: start;&quot;&gt;Дизайн и архитектура курсового проекта&lt;/span&gt;" style="text;html=1;align=center;verticalAlign=middle;whiteSpace=wrap;rounded=0;" vertex="1" parent="1">
          <mxGeometry x="150" y="50" width="460" height="30" as="geometry" />
        </mxCell>
        <mxCell id="XIXhQvEFovdF97oVQOTi-28" value="Stage Layer" style="text;html=1;align=center;verticalAlign=middle;whiteSpace=wrap;rounded=0;" vertex="1" parent="1">
          <mxGeometry x="480" y="430" width="60" height="30" as="geometry" />
        </mxCell>
        <mxCell id="XIXhQvEFovdF97oVQOTi-30" value="Streem" style="text;html=1;align=center;verticalAlign=middle;whiteSpace=wrap;rounded=0;" vertex="1" parent="1">
          <mxGeometry x="330" y="150" width="60" height="30" as="geometry" />
        </mxCell>
        <mxCell id="XIXhQvEFovdF97oVQOTi-31" value="Kafka" style="rounded=1;whiteSpace=wrap;html=1;" vertex="1" parent="1">
          <mxGeometry x="469" y="180" width="170" height="120" as="geometry" />
        </mxCell>
        <mxCell id="XIXhQvEFovdF97oVQOTi-36" style="edgeStyle=orthogonalEdgeStyle;rounded=0;orthogonalLoop=1;jettySize=auto;html=1;exitX=0;exitY=0.5;exitDx=0;exitDy=0;entryX=0.985;entryY=0.42;entryDx=0;entryDy=0;entryPerimeter=0;" edge="1" parent="1" source="XIXhQvEFovdF97oVQOTi-12" target="XIXhQvEFovdF97oVQOTi-13">
          <mxGeometry relative="1" as="geometry" />
        </mxCell>
        <mxCell id="XIXhQvEFovdF97oVQOTi-39" value="Data mart Layer" style="text;html=1;align=center;verticalAlign=middle;whiteSpace=wrap;rounded=0;" vertex="1" parent="1">
          <mxGeometry x="130" y="430" width="70" height="30" as="geometry" />
        </mxCell>
        <mxCell id="XIXhQvEFovdF97oVQOTi-41" value="&lt;div style=&quot;font-family: &amp;quot;Droid Sans Mono&amp;quot;, &amp;quot;monospace&amp;quot;, monospace; font-size: 14px; line-height: 19px; white-space: pre;&quot;&gt;&lt;span style=&quot;&quot;&gt;stream.binance.com:9443&lt;/span&gt;&lt;/div&gt;&lt;div style=&quot;font-family: &amp;quot;Droid Sans Mono&amp;quot;, &amp;quot;monospace&amp;quot;, monospace; font-size: 14px; line-height: 19px; white-space: pre;&quot;&gt;&lt;span style=&quot;&quot;&gt;&lt;br&gt;&lt;/span&gt;&lt;/div&gt;" style="text;html=1;align=center;verticalAlign=middle;whiteSpace=wrap;rounded=0;fontColor=#33001A;" vertex="1" parent="1">
          <mxGeometry x="160" y="290" width="60" height="30" as="geometry" />
        </mxCell>
        <mxCell id="XIXhQvEFovdF97oVQOTi-43" value="&lt;span style=&quot;font-family: &amp;quot;YS Text&amp;quot;, -apple-system, BlinkMacSystemFont, Arial, Helvetica, &amp;quot;Arial Unicode MS&amp;quot;, sans-serif; text-align: start; white-space-collapse: preserve; background-color: rgba(0, 0, 0, 0.05);&quot;&gt;&lt;font style=&quot;font-size: 14px;&quot;&gt;Every minute&lt;/font&gt;&lt;/span&gt;" style="text;html=1;align=center;verticalAlign=middle;whiteSpace=wrap;rounded=0;" vertex="1" parent="1">
          <mxGeometry x="330" y="460" width="60" height="30" as="geometry" />
        </mxCell>
        <mxCell id="XIXhQvEFovdF97oVQOTi-44" value="&lt;span style=&quot;font-family: &amp;quot;YS Text&amp;quot;, -apple-system, BlinkMacSystemFont, Arial, Helvetica, &amp;quot;Arial Unicode MS&amp;quot;, sans-serif; text-align: start; white-space-collapse: preserve; background-color: rgba(0, 0, 0, 0.05);&quot;&gt;&lt;font style=&quot;font-size: 14px;&quot;&gt;Every minute&lt;/font&gt;&lt;/span&gt;" style="text;html=1;align=center;verticalAlign=middle;whiteSpace=wrap;rounded=0;" vertex="1" parent="1">
          <mxGeometry x="170" y="730" width="60" height="30" as="geometry" />
        </mxCell>
        <mxCell id="XIXhQvEFovdF97oVQOTi-51" style="edgeStyle=orthogonalEdgeStyle;rounded=0;orthogonalLoop=1;jettySize=auto;html=1;entryX=0.452;entryY=0.018;entryDx=0;entryDy=0;entryPerimeter=0;" edge="1" parent="1" source="XIXhQvEFovdF97oVQOTi-31" target="XIXhQvEFovdF97oVQOTi-1">
          <mxGeometry relative="1" as="geometry" />
        </mxCell>
        <mxCell id="XIXhQvEFovdF97oVQOTi-52" value="BI&lt;div&gt;(Metabase,&amp;nbsp;&lt;span style=&quot;background-color: transparent; color: light-dark(rgb(0, 0, 0), rgb(255, 255, 255));&quot;&gt;Superset,&amp;nbsp;&lt;/span&gt;&lt;span style=&quot;background-color: transparent; color: light-dark(rgb(0, 0, 0), rgb(255, 255, 255));&quot;&gt;Streamlit)&lt;/span&gt;&lt;/div&gt;" style="rounded=1;whiteSpace=wrap;html=1;" vertex="1" parent="1">
          <mxGeometry x="200" y="780" width="220" height="140" as="geometry" />
        </mxCell>
      </root>
    </mxGraphModel>
  </diagram>
</mxfile>
